OxygenSans-Extra-light.ufo
<glyph name="quotedbl" format="1">
  <advance width="551"/>
  <unicode hex="0022"/>
  <outline>
    <contour>
      <point x="129" y="976" type="line"/>
      <point x="167" y="976" type="line"/>
      <point x="194" y="1392" type="line"/>
      <point x="118" y="1392" type="line"/>
    </contour>
    <contour>
      <point x="354" y="972" type="line"/>
      <point x="394" y="972" type="line"/>
      <point x="418" y="1392" type="line"/>
      <point x="343" y="1392" type="line"/>
    </contour>
  </outline>
</glyph>
<glyph name="parenright" format="1">
  <advance width="619"/>
  <unicode hex="0029"/>
  <outline>
    <contour>
      <point x="453" y="253"/>
      <point x="358" y="-40"/>
      <point x="204" y="-254" type="curve"/>
      <point x="130" y="-261" type="line"/>
      <point x="317" y="26"/>
      <point x="362" y="296"/>
      <point x="362" y="545" type="curve" smooth="yes"/>
      <point x="362" y="815"/>
      <point x="322" y="1057"/>
      <point x="129" y="1358" type="curve"/>
      <point x="206" y="1351" type="line"/>
      <point x="366" y="1112"/>
      <point x="453" y="835"/>
      <point x="453" y="540" type="curve" smooth="yes"/>
    </contour>
  </outline>
</glyph>
<glyph name="plus" format="1">
  <advance width="1065"/>
  <unicode hex="002B"/>
  <outline>
    <contour>
      <point x="491" y="627" type="line"/>
      <point x="491" y="1022" type="line"/>
      <point x="565" y="1022" type="line"/>
      <point x="565" y="627" type="line"/>
      <point x="916" y="627" type="line"/>
      <point x="916" y="548" type="line"/>
      <point x="564" y="548" type="line"/>
      <point x="564" y="145" type="line"/>
      <point x="490" y="145" type="line"/>
      <point x="490" y="548" type="line"/>
      <point x="129" y="548" type="line"/>
      <point x="129" y="627" type="line"/>
    </contour>
  </outline>
</glyph>
<glyph name="comma" format="1">
  <advance width="431"/>
  <unicode hex="002C"/>
  <outline>
    <contour>
      <point x="239" y="-50"/>
      <point x="256" y="-42"/>
      <point x="173" y="-266" type="curve"/>
      <point x="138" y="-266" type="line"/>
      <point x="165" y="-41"/>
      <point x="142" y="-22"/>
      <point x="155" y="192" type="curve"/>
      <point x="292" y="192" type="line"/>
      <point x="295" y="162" type="line"/>
    </contour>
  </outline>
</glyph>
<glyph name="one" format="1">
  <advance width="945"/>
  <unicode hex="0031"/>
  <outline>
    <contour>
      <point x="867" y="0" type="line"/>
      <point x="193" y="0" type="line"/>
      <point x="193" y="88" type="line"/>
      <point x="498" y="88" type="line"/>
      <point x="498" y="1253" type="line"/>
      <point x="423" y="1204"/>
      <point x="303" y="1161"/>
      <point x="231" y="1153" type="curve"/>
      <point x="231" y="1246" type="line"/>
      <point x="293" y="1255"/>
      <point x="432" y="1306"/>
      <point x="500" y="1354" type="curve"/>
      <point x="612" y="1354" type="line"/>
      <point x="612" y="88" type="line"/>
      <point x="867" y="88" type="line"/>
    </contour>
  </outline>
</glyph>
<glyph name="two" format="1">
  <advance width="1089"/>
  <unicode hex="0032"/>
  <outline>
    <contour>
      <point x="140" y="0" type="line"/>
      <point x="109" y="111" type="line"/>
      <point x="623" y="627" type="line" smooth="yes"/>
      <point x="755" y="759"/>
      <point x="823" y="812"/>
      <point x="823" y="995" type="curve" smooth="yes"/>
      <point x="823" y="1173"/>
      <point x="732" y="1282"/>
      <point x="543" y="1282" type="curve" smooth="yes"/>
      <point x="435" y="1282"/>
      <point x="355" y="1291"/>
      <point x="171" y="1166" type="curve"/>
      <point x="136" y="1269" type="line"/>
      <point x="259" y="1347"/>
      <point x="354" y="1372"/>
      <point x="542" y="1372" type="curve" smooth="yes"/>
      <point x="790" y="1372"/>
      <point x="935" y="1220"/>
      <point x="935" y="1012" type="curve" smooth="yes"/>
      <point x="935" y="806"/>
      <point x="872" y="735"/>
      <point x="691" y="556" type="curve" smooth="yes"/>
      <point x="217" y="88" type="line"/>
      <point x="950" y="88" type="line"/>
      <point x="945" y="0" type="line"/>
    </contour>
  </outline>
</glyph>
<glyph name="three" format="1">
  <advance width="1186"/>
  <unicode hex="0033"/>
  <outline>
    <contour>
      <point x="770" y="72"/>
      <point x="919" y="160"/>
      <point x="919" y="362" type="curve" smooth="yes"/>
      <point x="919" y="627"/>
      <point x="697" y="675"/>
      <point x="453" y="680" type="curve"/>
      <point x="426" y="680"/>
      <point x="447" y="680"/>
      <point x="421" y="680" type="curve"/>
      <point x="421" y="774" type="line"/>
      <point x="455" y="774" type="line"/>
      <point x="649" y="782"/>
      <point x="851" y="813"/>
      <point x="851" y="1046" type="curve" smooth="yes"/>
      <point x="851" y="1235"/>
      <point x="745" y="1282"/>
      <point x="566" y="1282" type="curve" smooth="yes"/>
      <point x="432" y="1282"/>
      <point x="320" y="1232"/>
      <point x="249" y="1169" type="curve"/>
      <point x="216" y="1266" type="line"/>
      <point x="284" y="1329"/>
      <point x="405" y="1372"/>
      <point x="611" y="1372" type="curve" smooth="yes"/>
      <point x="777" y="1372"/>
      <point x="973" y="1286"/>
      <point x="973" y="1068" type="curve" smooth="yes"/>
      <point x="973" y="868"/>
      <point x="861" y="763"/>
      <point x="698" y="722" type="curve"/>
      <point x="880" y="691"/>
      <point x="1003" y="581"/>
      <point x="1003" y="366" type="curve" smooth="yes"/>
      <point x="1003" y="129"/>
      <point x="824" y="-18"/>
      <point x="554" y="-18" type="curve" smooth="yes"/>
      <point x="359" y="-18"/>
      <point x="245" y="40"/>
      <point x="217" y="73" type="curve"/>
      <point x="249" y="173" type="line"/>
      <point x="320" y="117"/>
      <point x="404" y="72"/>
      <point x="555" y="72" type="curve" smooth="yes"/>
    </contour>
  </outline>
</glyph>
<glyph name="five" format="1">
  <advance width="1073"/>
  <unicode hex="0035"/>
  <outline>
    <contour>
      <point x="995" y="155"/>
      <point x="795" y="-18"/>
      <point x="479" y="-18" type="curve" smooth="yes"/>
      <point x="347" y="-18"/>
      <point x="262" y="-4"/>
      <point x="136" y="106" type="curve"/>
      <point x="176" y="198" type="line"/>
      <point x="267" y="129"/>
      <point x="331" y="72"/>
      <point x="488" y="72" type="curve" smooth="yes"/>
      <point x="718" y="72"/>
      <point x="894" y="224"/>
      <point x="894" y="428" type="curve" smooth="yes"/>
      <point x="894" y="597"/>
      <point x="788" y="735"/>
      <point x="549" y="735" type="curve" smooth="yes"/>
      <point x="446" y="735"/>
      <point x="366" y="709"/>
      <point x="309" y="647" type="curve"/>
      <point x="219" y="656" type="line"/>
      <point x="254" y="1354" type="line"/>
      <point x="934" y="1354" type="line"/>
      <point x="924" y="1243" type="line"/>
      <point x="331" y="1243" type="line"/>
      <point x="306" y="769" type="line"/>
      <point x="398" y="830"/>
      <point x="479" y="840"/>
      <point x="575" y="840" type="curve" smooth="yes"/>
      <point x="877" y="840"/>
      <point x="995" y="651"/>
      <point x="995" y="433" type="curve" smooth="yes"/>
    </contour>
  </outline>
</glyph>
<glyph name="seven" format="1">
  <advance width="956"/>
  <unicode hex="0037"/>
  <outline>
    <contour>
      <point x="851" y="1354" type="line"/>
      <point x="851" y="1270" type="line"/>
      <point x="344" y="1" type="line"/>
      <point x="241" y="1" type="line"/>
      <point x="744" y="1266" type="line"/>
      <point x="142" y="1266" type="line"/>
      <point x="116" y="1354" type="line"/>
    </contour>
  </outline>
</glyph>
<glyph name="eight" format="1">
  <advance width="1205"/>
  <unicode hex="0038"/>
  <outline>
    <contour>
      <point x="1028" y="95"/>
      <point x="840" y="-18"/>
      <point x="600" y="-18" type="curve" smooth="yes"/>
      <point x="363" y="-18"/>
      <point x="172" y="94"/>
      <point x="172" y="329" type="curve" smooth="yes"/>
      <point x="172" y="527"/>
      <point x="281" y="642"/>
      <point x="483" y="704" type="curve"/>
      <point x="323" y="747"/>
      <point x="202" y="868"/>
      <point x="202" y="1040" type="curve" smooth="yes"/>
      <point x="202" y="1246"/>
      <point x="359" y="1372"/>
      <point x="601" y="1372" type="curve" smooth="yes"/>
      <point x="841" y="1372"/>
      <point x="996" y="1246"/>
      <point x="996" y="1040" type="curve" smooth="yes"/>
      <point x="996" y="866"/>
      <point x="885" y="758"/>
      <point x="716" y="707" type="curve"/>
      <point x="909" y="656"/>
      <point x="1028" y="508"/>
      <point x="1028" y="329" type="curve" smooth="yes"/>
    </contour>
    <contour>
      <point x="270" y="165"/>
      <point x="383" y="72"/>
      <point x="600" y="72" type="curve" smooth="yes"/>
      <point x="824" y="72"/>
      <point x="926" y="156"/>
      <point x="926" y="341" type="curve" smooth="yes"/>
      <point x="926" y="510"/>
      <point x="788" y="617"/>
      <point x="600" y="654" type="curve"/>
      <point x="414" y="617"/>
      <point x="270" y="519"/>
      <point x="270" y="341" type="curve" smooth="yes"/>
    </contour>
    <contour>
      <point x="313" y="891"/>
      <point x="409" y="787"/>
      <point x="600" y="746" type="curve"/>
      <point x="793" y="787"/>
      <point x="884" y="891"/>
      <point x="884" y="1046" type="curve" smooth="yes"/>
      <point x="884" y="1193"/>
      <point x="774" y="1282"/>
      <point x="600" y="1282" type="curve" smooth="yes"/>
      <point x="428" y="1282"/>
      <point x="313" y="1193"/>
      <point x="313" y="1046" type="curve" smooth="yes"/>
    </contour>
  </outline>
</glyph>
<glyph name="colon" format="1">
  <advance width="461"/>
  <unicode hex="003A"/>
  <outline>
    <contour>
      <point x="157" y="-34" type="line"/>
      <point x="157" y="142" type="line"/>
      <point x="292" y="142" type="line"/>
      <point x="292" y="-34" type="line"/>
    </contour>
    <contour>
      <point x="157" y="843" type="line"/>
      <point x="157" y="1023" type="line"/>
      <point x="292" y="1023" type="line"/>
      <point x="292" y="843" type="line"/>
    </contour>
  </outline>
</glyph>
<glyph name="semicolon" format="1">
  <advance width="449"/>
  <unicode hex="003B"/>
  <outline>
    <contour>
      <point x="122" y="-279" type="line"/>
      <point x="174" y="134" type="line"/>
      <point x="296" y="134" type="line"/>
      <point x="183" y="-279" type="line"/>
    </contour>
    <contour>
      <point x="168" y="843" type="line"/>
      <point x="168" y="1024" type="line"/>
      <point x="303" y="1024" type="line"/>
      <point x="303" y="843" type="line"/>
    </contour>
  </outline>
</glyph>
<glyph name="A" format="1">
  <advance width="1217"/>
  <unicode hex="0041"/>
  <outline>
    <contour>
      <point x="363" y="548" type="line" smooth="yes"/>
      <point x="363" y="548"/>
      <point x="609" y="1235"/>
      <point x="609" y="1235" type="curve"/>
      <point x="866" y="548" type="line"/>
    </contour>
    <contour>
      <point x="46" y="0" type="line"/>
      <point x="154" y="0" type="line"/>
      <point x="331" y="464" type="line"/>
      <point x="889" y="464" type="line"/>
      <point x="1068" y="0" type="line"/>
      <point x="1171" y="0" type="line"/>
      <point x="659" y="1354" type="line"/>
      <point x="558" y="1354" type="line"/>
    </contour>
    <contour>
      <point x="1063" y="0" type="move" name="ogonek"/>
    </contour>
    <contour>
      <point x="603" y="1339" type="move" name="top"/>
    </contour>
  </outline>
</glyph>
<glyph name="B" format="1">
  <advance width="1297"/>
  <unicode hex="0042"/>
  <outline>
    <contour>
      <point x="214" y="0" type="line"/>
      <point x="709" y="0" type="line" smooth="yes"/>
      <point x="1045" y="0"/>
      <point x="1181" y="153"/>
      <point x="1181" y="376" type="curve" smooth="yes"/>
      <point x="1181" y="539"/>
      <point x="1082" y="651"/>
      <point x="862" y="704" type="curve"/>
      <point x="1125" y="779"/>
      <point x="1115" y="969"/>
      <point x="1115" y="1025" type="curve" smooth="yes"/>
      <point x="1115" y="1246"/>
      <point x="956" y="1354"/>
      <point x="606" y="1354" type="curve" smooth="yes"/>
      <point x="214" y="1354" type="line"/>
    </contour>
    <contour>
      <point x="328" y="88" type="line"/>
      <point x="328" y="668" type="line"/>
      <point x="624" y="668" type="line" smooth="yes"/>
      <point x="923" y="668"/>
      <point x="1067" y="599"/>
      <point x="1067" y="374" type="curve" smooth="yes"/>
      <point x="1067" y="169"/>
      <point x="956" y="88"/>
      <point x="693" y="88" type="curve" smooth="yes"/>
    </contour>
    <contour>
      <point x="328" y="756" type="line"/>
      <point x="328" y="1266" type="line"/>
      <point x="618" y="1266" type="line" smooth="yes"/>
      <point x="876" y="1266"/>
      <point x="1009" y="1217"/>
      <point x="1009" y="1014" type="curve" smooth="yes"/>
      <point x="1009" y="801"/>
      <point x="884" y="756"/>
      <point x="693" y="756" type="curve" smooth="yes"/>
    </contour>
  </outline>
</glyph>
<glyph name="D" format="1">
  <advance width="1450"/>
  <unicode hex="0044"/>
  <outline>
    <contour>
      <point x="328" y="1266" type="line"/>
      <point x="328" y="88" type="line"/>
      <point x="602" y="88" type="line" smooth="yes"/>
      <point x="1002" y="88"/>
      <point x="1196" y="282"/>
      <point x="1196" y="675" type="curve" smooth="yes"/>
      <point x="1196" y="1107"/>
      <point x="967" y="1266"/>
      <point x="577" y="1266" type="curve" smooth="yes"/>
    </contour>
    <contour>
      <point x="214" y="0" type="line"/>
      <point x="214" y="1354" type="line"/>
      <point x="592" y="1354" type="line" smooth="yes"/>
      <point x="1021" y="1354"/>
      <point x="1310" y="1156"/>
      <point x="1310" y="679" type="curve" smooth="yes"/>
      <point x="1310" y="229"/>
      <point x="1051" y="0"/>
      <point x="621" y="0" type="curve" smooth="yes"/>
    </contour>
    <contour>
      <point x="705" y="675" type="move" name="center"/>
    </contour>
    <contour>
      <point x="705" y="1349" type="move" name="top"/>
    </contour>
  </outline>
</glyph>
<glyph name="E" format="1">
  <advance width="1140"/>
  <unicode hex="0045"/>
  <outline>
    <contour>
      <point x="328" y="1266" type="line"/>
      <point x="328" y="740" type="line"/>
      <point x="945" y="740" type="line"/>
      <point x="945" y="652" type="line"/>
      <point x="328" y="652" type="line"/>
      <point x="328" y="88" type="line"/>
      <point x="1020" y="88" type="line"/>
      <point x="1011" y="0" type="line"/>
      <point x="214" y="0" type="line"/>
      <point x="214" y="1354" type="line"/>
      <point x="1020" y="1354" type="line"/>
      <point x="1016" y="1266" type="line"/>
    </contour>
    <contour>
      <point x="1008" y="10" type="move" name="ogonek"/>
    </contour>
    <contour>
      <point x="581" y="0" type="move" name="bottom"/>
    </contour>
    <contour>
      <point x="581" y="1349" type="move" name="top"/>
    </contour>
  </outline>
</glyph>
<glyph name="H" format="1">
  <advance width="1432"/>
  <unicode hex="0048"/>
  <outline>
    <contour>
      <point x="328" y="736" type="line"/>
      <point x="328" y="1354" type="line"/>
      <point x="214" y="1354" type="line"/>
      <point x="214" y="0" type="line"/>
      <point x="328" y="0" type="line"/>
      <point x="328" y="655" type="line"/>
      <point x="1104" y="655" type="line"/>
      <point x="1104" y="0" type="line"/>
      <point x="1218" y="0" type="line"/>
      <point x="1218" y="1354" type="line"/>
      <point x="1104" y="1354" type="line"/>
      <point x="1104" y="736" type="line"/>
    </contour>
    <contour>
      <point x="711" y="675" type="move" name="center"/>
    </contour>
    <contour>
      <point x="711" y="1349" type="move" name="top"/>
    </contour>
  </outline>
</glyph>
<glyph name="K" format="1">
  <advance width="1211"/>
  <unicode hex="004B"/>
  <outline>
    <contour>
      <point x="984" y="1354" type="line"/>
      <point x="1119" y="1354" type="line"/>
      <point x="529" y="760" type="line"/>
      <point x="1147" y="0" type="line"/>
      <point x="1010" y="0" type="line"/>
      <point x="457" y="694" type="line"/>
      <point x="328" y="572" type="line"/>
      <point x="328" y="0" type="line"/>
      <point x="214" y="0" type="line"/>
      <point x="214" y="1354" type="line"/>
      <point x="328" y="1354" type="line"/>
      <point x="328" y="694" type="line"/>
    </contour>
    <contour>
      <point x="606" y="1349" type="move" name="top"/>
    </contour>
    <contour>
      <point x="606" y="0" type="move" name="bottom"/>
    </contour>
  </outline>
</glyph>
<glyph name="M" format="1">
  <advance width="1690"/>
  <unicode hex="004D"/>
  <outline>
    <contour>
      <point x="1314" y="1354" type="line"/>
      <point x="1476" y="1354" type="line"/>
      <point x="1476" y="0" type="line"/>
      <point x="1371" y="0" type="line"/>
      <point x="1371" y="1004" type="line"/>
      <point x="1377" y="1265" type="line"/>
      <point x="909" y="98" type="line"/>
      <point x="790" y="98" type="line"/>
      <point x="313" y="1267" type="line"/>
      <point x="321" y="1000" type="line"/>
      <point x="321" y="0" type="line"/>
      <point x="214" y="0" type="line"/>
      <point x="214" y="1354" type="line"/>
      <point x="383" y="1354" type="line"/>
      <point x="850" y="213" type="line"/>
    </contour>
  </outline>
</glyph>
<glyph name="N" format="1">
  <advance width="1478"/>
  <unicode hex="004E"/>
  <outline>
    <contour>
      <point x="1172" y="146" type="line"/>
      <point x="1166" y="497" type="line"/>
      <point x="1166" y="1354" type="line"/>
      <point x="1264" y="1354" type="line"/>
      <point x="1264" y="0" type="line"/>
      <point x="1156" y="0" type="line"/>
      <point x="301" y="1222" type="line"/>
      <point x="312" y="844" type="line"/>
      <point x="312" y="0" type="line"/>
      <point x="214" y="0" type="line"/>
      <point x="214" y="1354" type="line"/>
      <point x="318" y="1354" type="line"/>
    </contour>
    <contour>
      <point x="762" y="1349" type="move" name="top"/>
    </contour>
    <contour>
      <point x="762" y="0" type="move" name="bottom"/>
    </contour>
  </outline>
</glyph>
<glyph name="P" format="1">
  <advance width="1164"/>
  <unicode hex="0050"/>
  <outline>
    <contour>
      <point x="950" y="800"/>
      <point x="847" y="715"/>
      <point x="652" y="715" type="curve" smooth="yes"/>
      <point x="328" y="715" type="line"/>
      <point x="328" y="1266" type="line"/>
      <point x="648" y="1266" type="line" smooth="yes"/>
      <point x="821" y="1266"/>
      <point x="945" y="1185"/>
      <point x="950" y="1010" type="curve" smooth="yes"/>
    </contour>
    <contour>
      <point x="328" y="627" type="line"/>
      <point x="650" y="627" type="line" smooth="yes"/>
      <point x="938" y="627"/>
      <point x="1064" y="772"/>
      <point x="1064" y="1009" type="curve" smooth="yes"/>
      <point x="1064" y="1241"/>
      <point x="891" y="1354"/>
      <point x="655" y="1354" type="curve" smooth="yes"/>
      <point x="214" y="1354" type="line"/>
      <point x="214" y="0" type="line"/>
      <point x="328" y="0" type="line"/>
    </contour>
  </outline>
</glyph>
<glyph name="Q" format="1">
  <advance width="1553"/>
  <unicode hex="0051"/>
  <outline>
    <contour>
      <point x="1248" y="-321" type="line"/>
      <point x="1173" y="-243"/>
      <point x="1045" y="-85"/>
      <point x="996" y="20" type="curve"/>
      <point x="906" y="8" type="line"/>
      <point x="991" y="-159"/>
      <point x="1137" y="-328"/>
      <point x="1185" y="-382" type="curve"/>
    </contour>
    <component base="O"/>
  </outline>
</glyph>
<glyph name="R" format="1">
  <advance width="1341"/>
  <unicode hex="0052"/>
  <outline>
    <contour>
      <point x="686" y="765" type="line" smooth="yes"/>
      <point x="1004" y="765"/>
      <point x="1049" y="847"/>
      <point x="1049" y="1021" type="curve" smooth="yes"/>
      <point x="1049" y="1177"/>
      <point x="987" y="1266"/>
      <point x="773" y="1266" type="curve" smooth="yes"/>
      <point x="328" y="1266" type="line"/>
      <point x="328" y="765" type="line"/>
    </contour>
    <contour>
      <point x="214" y="0" type="line"/>
      <point x="214" y="1354" type="line"/>
      <point x="775" y="1354" type="line" smooth="yes"/>
      <point x="1052" y="1354"/>
      <point x="1158" y="1232"/>
      <point x="1158" y="1022" type="curve" smooth="yes"/>
      <point x="1158" y="821"/>
      <point x="1061" y="740"/>
      <point x="923" y="703" type="curve"/>
      <point x="923" y="703"/>
      <point x="971" y="584"/>
      <point x="998" y="520" type="curve" smooth="yes"/>
      <point x="1215" y="0" type="line"/>
      <point x="1099" y="0" type="line"/>
      <point x="909" y="472" type="line" smooth="yes"/>
      <point x="872" y="563"/>
      <point x="850" y="624"/>
      <point x="813" y="681" type="curve"/>
      <point x="780" y="677"/>
      <point x="684" y="675"/>
      <point x="655" y="675" type="curve" smooth="yes"/>
      <point x="328" y="675" type="line"/>
      <point x="328" y="0" type="line"/>
    </contour>
    <contour>
      <point x="678" y="1349" type="move" name="top"/>
    </contour>
    <contour>
      <point x="678" y="0" type="move" name="bottom"/>
    </contour>
  </outline>
</glyph>
<glyph name="T" format="1">
  <advance width="1065"/>
  <unicode hex="0054"/>
  <outline>
    <contour>
      <point x="1011" y="1354" type="line"/>
      <point x="1011" y="1272" type="line"/>
      <point x="587" y="1272" type="line"/>
      <point x="587" y="0" type="line"/>
      <point x="473" y="0" type="line"/>
      <point x="473" y="1272" type="line"/>
      <point x="54" y="1272" type="line"/>
      <point x="54" y="1354" type="line"/>
    </contour>
    <contour>
      <point x="536" y="675" type="move" name="center"/>
    </contour>
    <contour>
      <point x="536" y="0" type="move" name="bottom"/>
    </contour>
    <contour>
      <point x="536" y="1349" type="move" name="top"/>
    </contour>
  </outline>
</glyph>
<glyph name="U" format="1">
  <advance width="1378"/>
  <unicode hex="0055"/>
  <outline>
    <contour>
      <point x="1214" y="210"/>
      <point x="1055" y="-18"/>
      <point x="688" y="-18" type="curve" smooth="yes"/>
      <point x="323" y="-18"/>
      <point x="164" y="213"/>
      <point x="164" y="502" type="curve" smooth="yes"/>
      <point x="164" y="1354" type="line"/>
      <point x="278" y="1354" type="line"/>
      <point x="278" y="499" type="line" smooth="yes"/>
      <point x="278" y="223"/>
      <point x="398" y="72"/>
      <point x="688" y="72" type="curve" smooth="yes"/>
      <point x="963" y="72"/>
      <point x="1100" y="222"/>
      <point x="1100" y="498" type="curve" smooth="yes"/>
      <point x="1100" y="1354" type="line"/>
      <point x="1214" y="1354" type="line"/>
      <point x="1214" y="499" type="line" smooth="yes"/>
    </contour>
    <contour>
      <point x="1207" y="10" type="move" name="ogonek"/>
    </contour>
    <contour>
      <point x="692" y="1349" type="move" name="top"/>
    </contour>
  </outline>
</glyph>
<glyph name="W" format="1">
  <advance width="1956"/>
  <unicode hex="0057"/>
  <outline>
    <contour>
      <point x="920" y="1315" type="line"/>
      <point x="1037" y="1315" type="line"/>
      <point x="1410" y="139" type="line"/>
      <point x="1783" y="1353" type="line"/>
      <point x="1892" y="1353" type="line"/>
      <point x="1466" y="0" type="line"/>
      <point x="1352" y="0" type="line"/>
      <point x="981" y="1198" type="line"/>
      <point x="607" y="0" type="line"/>
      <point x="496" y="0" type="line"/>
      <point x="64" y="1353" type="line"/>
      <point x="169" y="1353" type="line"/>
      <point x="549" y="139" type="line"/>
    </contour>
    <contour>
      <point x="978" y="1349" type="move" name="top"/>
    </contour>
  </outline>
</glyph>
<glyph name="X" format="1">
  <advance width="1266"/>
  <unicode hex="0058"/>
  <outline>
    <contour>
      <point x="701" y="661" type="line"/>
      <point x="1132" y="1354" type="line"/>
      <point x="1020" y="1354" type="line"/>
      <point x="639" y="726" type="line"/>
      <point x="237" y="1354" type="line"/>
      <point x="134" y="1354" type="line"/>
      <point x="575" y="669" type="line"/>
      <point x="150" y="0" type="line"/>
      <point x="255" y="0" type="line"/>
      <point x="639" y="599" type="line"/>
      <point x="1032" y="0" type="line"/>
      <point x="1132" y="0" type="line"/>
    </contour>
  </outline>
</glyph>
<glyph name="Y" format="1">
  <advance width="1146"/>
  <unicode hex="0059"/>
  <outline>
    <contour>
      <point x="591" y="644" type="line"/>
      <point x="978" y="1354" type="line"/>
      <point x="1084" y="1354" type="line"/>
      <point x="648" y="572" type="line"/>
      <point x="648" y="0" type="line"/>
      <point x="534" y="0" type="line"/>
      <point x="534" y="568" type="line"/>
      <point x="62" y="1354" type="line"/>
      <point x="167" y="1354" type="line"/>
    </contour>
    <contour>
      <point x="586" y="1349" type="move" name="top"/>
    </contour>
  </outline>
</glyph>
<glyph name="a" format="1">
  <advance width="1076"/>
  <unicode hex="0061"/>
  <outline>
    <contour>
      <point x="118" y="74"/>
      <point x="245" y="-14"/>
      <point x="425" y="-14" type="curve" smooth="yes"/>
      <point x="546" y="-14"/>
      <point x="683" y="16"/>
      <point x="798" y="169" type="curve"/>
      <point x="818" y="4" type="line"/>
      <point x="898" y="4" type="line"/>
      <point x="898" y="656" type="line" smooth="yes"/>
      <point x="898" y="918"/>
      <point x="742" y="1005"/>
      <point x="519" y="1005" type="curve" smooth="yes"/>
      <point x="406" y="1005"/>
      <point x="257" y="968"/>
      <point x="182" y="923" type="curve"/>
      <point x="190" y="900"/>
      <point x="209" y="864"/>
      <point x="219" y="842" type="curve"/>
      <point x="308" y="891"/>
      <point x="438" y="919"/>
      <point x="539" y="919" type="curve" smooth="yes"/>
      <point x="710" y="919"/>
      <point x="787" y="828"/>
      <point x="787" y="676" type="curve" smooth="yes"/>
      <point x="787" y="583" type="line"/>
      <point x="615" y="577" type="line" smooth="yes"/>
      <point x="282" y="565"/>
      <point x="118" y="458"/>
      <point x="118" y="249" type="curve" smooth="yes"/>
    </contour>
    <contour>
      <point x="707" y="114"/>
      <point x="577" y="72"/>
      <point x="415" y="72" type="curve" smooth="yes"/>
      <point x="325" y="72"/>
      <point x="230" y="115"/>
      <point x="230" y="246" type="curve" smooth="yes"/>
      <point x="230" y="401"/>
      <point x="324" y="475"/>
      <point x="646" y="500" type="curve" smooth="yes"/>
      <point x="787" y="511" type="line"/>
      <point x="787" y="299" type="line"/>
    </contour>
    <contour>
      <point x="936" y="10" type="move" name="ogonek"/>
    </contour>
    <contour>
      <point x="519" y="986" type="move" name="top"/>
    </contour>
  </outline>
</glyph>
<glyph name="b" format="1">
  <advance width="1185"/>
  <unicode hex="0062"/>
  <outline>
    <contour>
      <point x="343" y="73"/>
      <point x="475" y="-18"/>
      <point x="630" y="-18" type="curve" smooth="yes"/>
      <point x="917" y="-18"/>
      <point x="1065" y="180"/>
      <point x="1065" y="486" type="curve" smooth="yes"/>
      <point x="1065" y="800"/>
      <point x="929" y="1004"/>
      <point x="638" y="1004" type="curve" smooth="yes"/>
      <point x="508" y="1004"/>
      <point x="360" y="933"/>
      <point x="297" y="797" type="curve"/>
      <point x="297" y="1392" type="line"/>
      <point x="180" y="1382" type="line"/>
      <point x="180" y="0" type="line"/>
      <point x="268" y="0" type="line"/>
      <point x="283" y="211" type="line"/>
    </contour>
    <contour>
      <point x="951" y="240"/>
      <point x="866" y="68"/>
      <point x="635" y="68" type="curve" smooth="yes"/>
      <point x="424" y="68"/>
      <point x="294" y="223"/>
      <point x="294" y="506" type="curve"/>
      <point x="293" y="739"/>
      <point x="393" y="918"/>
      <point x="643" y="918" type="curve" smooth="yes"/>
      <point x="878" y="918"/>
      <point x="951" y="724"/>
      <point x="951" y="488" type="curve" smooth="yes"/>
    </contour>
  </outline>
</glyph>
<glyph name="d" format="1">
  <advance width="1177"/>
  <unicode hex="0064"/>
  <outline>
    <contour>
      <point x="887" y="249"/>
      <point x="794" y="68"/>
      <point x="547" y="68" type="curve" smooth="yes"/>
      <point x="315" y="68"/>
      <point x="234" y="261"/>
      <point x="234" y="497" type="curve" smooth="yes"/>
      <point x="234" y="745"/>
      <point x="326" y="918"/>
      <point x="554" y="918" type="curve" smooth="yes"/>
      <point x="762" y="918"/>
      <point x="886" y="745"/>
      <point x="886" y="482" type="curve" smooth="yes"/>
    </contour>
    <contour>
      <point x="688" y="-18"/>
      <point x="838" y="66"/>
      <point x="892" y="221" type="curve"/>
      <point x="906" y="0" type="line"/>
      <point x="997" y="0" type="line"/>
      <point x="997" y="1392" type="line"/>
      <point x="883" y="1382" type="line"/>
      <point x="883" y="1067" type="line" smooth="yes"/>
      <point x="883" y="983"/>
      <point x="888" y="848"/>
      <point x="893" y="768" type="curve"/>
      <point x="832" y="912"/>
      <point x="708" y="1004"/>
      <point x="540" y="1004" type="curve" smooth="yes"/>
      <point x="272" y="1004"/>
      <point x="120" y="797"/>
      <point x="120" y="499" type="curve" smooth="yes"/>
      <point x="120" y="185"/>
      <point x="264" y="-18"/>
      <point x="551" y="-18" type="curve" smooth="yes"/>
    </contour>
    <contour>
      <point x="566" y="492" type="move" name="center"/>
    </contour>
  </outline>
</glyph>
<glyph name="e" format="1">
  <advance width="1074"/>
  <unicode hex="0065"/>
  <outline>
    <contour>
      <point x="229" y="558" type="line"/>
      <point x="244" y="767"/>
      <point x="384" y="918"/>
      <point x="578" y="918" type="curve" smooth="yes"/>
      <point x="772" y="918"/>
      <point x="839" y="788"/>
      <point x="845" y="558" type="curve"/>
    </contour>
    <contour>
      <point x="120" y="171"/>
      <point x="312" y="-18"/>
      <point x="581" y="-18" type="curve" smooth="yes"/>
      <point x="725" y="-18"/>
      <point x="834" y="13"/>
      <point x="930" y="69" type="curve"/>
      <point x="896" y="141" type="line"/>
      <point x="773" y="77"/>
      <point x="687" y="68"/>
      <point x="590" y="68" type="curve" smooth="yes"/>
      <point x="387" y="68"/>
      <point x="226" y="186"/>
      <point x="226" y="487" type="curve"/>
      <point x="947" y="487" type="line"/>
      <point x="947" y="487"/>
      <point x="952" y="521"/>
      <point x="952" y="550" type="curve" smooth="yes"/>
      <point x="952" y="827"/>
      <point x="816" y="1004"/>
      <point x="576" y="1004" type="curve" smooth="yes"/>
      <point x="333" y="1004"/>
      <point x="120" y="800"/>
      <point x="120" y="485" type="curve" smooth="yes"/>
    </contour>
    <contour>
      <point x="934" y="10" type="move" name="ogonek"/>
    </contour>
    <contour>
      <point x="530" y="0" type="move" name="bottom"/>
    </contour>
    <contour>
      <point x="530" y="986" type="move" name="top"/>
    </contour>
  </outline>
</glyph>
<glyph name="g" format="1">
  <advance width="1200"/>
  <unicode hex="0067"/>
  <outline>
    <contour>
      <point x="310" y="87"/>
      <point x="234" y="326"/>
      <point x="234" y="490" type="curve" smooth="yes"/>
      <point x="234" y="651"/>
      <point x="303" y="918"/>
      <point x="558" y="918" type="curve" smooth="yes"/>
      <point x="560" y="918" type="line" smooth="yes"/>
      <point x="814" y="918"/>
      <point x="916" y="731"/>
      <point x="916" y="548" type="curve" smooth="yes"/>
      <point x="916" y="440" type="line" smooth="yes"/>
      <point x="916" y="267"/>
      <point x="808" y="87"/>
      <point x="561" y="87" type="curve" smooth="yes"/>
    </contour>
    <contour>
      <point x="375" y="-380"/>
      <point x="477" y="-398"/>
      <point x="568" y="-398" type="curve" smooth="yes"/>
      <point x="858" y="-398"/>
      <point x="1030" y="-209"/>
      <point x="1030" y="69" type="curve" smooth="yes"/>
      <point x="1030" y="986" type="line"/>
      <point x="923" y="986" type="line"/>
      <point x="911" y="819" type="line"/>
      <point x="841" y="935"/>
      <point x="714" y="1004"/>
      <point x="580" y="1004" type="curve" smooth="yes"/>
      <point x="232" y="1004"/>
      <point x="120" y="731"/>
      <point x="120" y="481" type="curve" smooth="yes"/>
      <point x="120" y="273"/>
      <point x="243" y="0"/>
      <point x="566" y="0" type="curve" smooth="yes"/>
      <point x="739" y="0"/>
      <point x="879" y="117"/>
      <point x="913" y="234" type="curve"/>
      <point x="913" y="89" type="line" smooth="yes"/>
      <point x="913" y="-189"/>
      <point x="782" y="-305"/>
      <point x="569" y="-305" type="curve" smooth="yes"/>
      <point x="486" y="-305"/>
      <point x="391" y="-288"/>
      <point x="286" y="-255" type="curve"/>
      <point x="263" y="-340" type="line"/>
    </contour>
    <contour>
      <point x="604" y="986" type="move" name="top"/>
    </contour>
  </outline>
</glyph>
<glyph name="h" format="1">
  <advance width="1134"/>
  <unicode hex="0068"/>
  <outline>
    <contour>
      <point x="180" y="1382" type="line"/>
      <point x="180" y="0" type="line"/>
      <point x="294" y="0" type="line"/>
      <point x="294" y="567" type="line" smooth="yes"/>
      <point x="294" y="595"/>
      <point x="297" y="623"/>
      <point x="297" y="658" type="curve"/>
      <point x="321" y="797"/>
      <point x="413" y="918"/>
      <point x="621" y="918" type="curve" smooth="yes"/>
      <point x="789" y="918"/>
      <point x="850" y="812"/>
      <point x="850" y="606" type="curve" smooth="yes"/>
      <point x="850" y="0" type="line"/>
      <point x="964" y="0" type="line"/>
      <point x="964" y="605" type="line" smooth="yes"/>
      <point x="964" y="851"/>
      <point x="857" y="1004"/>
      <point x="637" y="1004" type="curve" smooth="yes"/>
      <point x="503" y="1004"/>
      <point x="347" y="945"/>
      <point x="288" y="810" type="curve"/>
      <point x="288" y="810"/>
      <point x="294" y="1011"/>
      <point x="294" y="1029" type="curve" smooth="yes"/>
      <point x="294" y="1392" type="line"/>
    </contour>
    <contour>
      <point x="551" y="494" type="move" name="center"/>
    </contour>
    <contour>
      <point x="551" y="986" type="move" name="top"/>
    </contour>
  </outline>
</glyph>
<glyph name="i" format="1">
  <advance width="470"/>
  <unicode hex="0069"/>
  <outline>
    <contour>
      <point x="180" y="0" type="line"/>
      <point x="180" y="986" type="line"/>
      <point x="294" y="986" type="line"/>
      <point x="294" y="0" type="line"/>
    </contour>
    <contour>
      <point x="180" y="1209" type="line"/>
      <point x="180" y="1354" type="line"/>
      <point x="294" y="1354" type="line"/>
      <point x="294" y="1209" type="line"/>
    </contour>
  </outline>
</glyph>
<glyph name="k" format="1">
  <advance width="1021"/>
  <unicode hex="006B"/>
  <outline>
    <contour>
      <point x="180" y="1382" type="line"/>
      <point x="294" y="1392" type="line"/>
      <point x="294" y="657" type="line"/>
      <point x="288" y="464" type="line"/>
      <point x="844" y="986" type="line"/>
      <point x="977" y="986" type="line"/>
      <point x="488" y="528" type="line"/>
      <point x="983" y="0" type="line"/>
      <point x="851" y="0" type="line"/>
      <point x="427" y="473" type="line"/>
      <point x="294" y="358" type="line"/>
      <point x="294" y="0" type="line"/>
      <point x="180" y="0" type="line"/>
    </contour>
    <contour>
      <point x="505" y="0" type="move" name="bottom"/>
    </contour>
  </outline>
</glyph>
<glyph name="l" format="1">
  <advance width="533"/>
  <unicode hex="006C"/>
  <outline>
    <contour>
      <point x="180" y="28"/>
      <point x="276" y="-11"/>
      <point x="398" y="-11" type="curve" smooth="yes"/>
      <point x="421" y="-11"/>
      <point x="445" y="-10"/>
      <point x="469" y="-8" type="curve"/>
      <point x="462" y="72" type="line"/>
      <point x="453" y="72"/>
      <point x="445" y="71"/>
      <point x="437" y="71" type="curve" smooth="yes"/>
      <point x="313" y="71"/>
      <point x="294" y="117"/>
      <point x="294" y="232" type="curve" smooth="yes"/>
      <point x="294" y="1392" type="line"/>
      <point x="180" y="1382" type="line"/>
      <point x="180" y="242" type="line" smooth="yes"/>
    </contour>
    <contour>
      <point x="236" y="986" type="move" name="top"/>
    </contour>
    <contour>
      <point x="236" y="0" type="move" name="bottom"/>
    </contour>
    <contour>
      <point x="437" y="986" type="move" name="topright"/>
    </contour>
  </outline>
</glyph>
<glyph name="m" format="1">
  <advance width="1670"/>
  <unicode hex="006D"/>
  <outline>
    <contour>
      <point x="294" y="653" type="line"/>
      <point x="329" y="802"/>
      <point x="439" y="918"/>
      <point x="589" y="918" type="curve" smooth="yes"/>
      <point x="743" y="918"/>
      <point x="790" y="809"/>
      <point x="790" y="545" type="curve" smooth="yes"/>
      <point x="790" y="0" type="line"/>
      <point x="904" y="0" type="line"/>
      <point x="904" y="475" type="line" smooth="yes"/>
      <point x="904" y="566"/>
      <point x="903" y="618"/>
      <point x="907" y="641" type="curve" smooth="yes"/>
      <point x="949" y="848"/>
      <point x="1071" y="918"/>
      <point x="1189" y="918" type="curve" smooth="yes"/>
      <point x="1395" y="918"/>
      <point x="1386" y="694"/>
      <point x="1386" y="561" type="curve" smooth="yes"/>
      <point x="1386" y="0" type="line"/>
      <point x="1500" y="0" type="line"/>
      <point x="1500" y="639" type="line" smooth="yes"/>
      <point x="1500" y="879"/>
      <point x="1404" y="1004"/>
      <point x="1209" y="1004" type="curve" smooth="yes"/>
      <point x="1053" y="1004"/>
      <point x="937" y="918"/>
      <point x="868" y="771" type="curve"/>
      <point x="849" y="854"/>
      <point x="791" y="1004"/>
      <point x="593" y="1004" type="curve" smooth="yes"/>
      <point x="477" y="1004"/>
      <point x="372" y="946"/>
      <point x="287" y="810" type="curve"/>
      <point x="272" y="986" type="line"/>
      <point x="180" y="986" type="line"/>
      <point x="180" y="0" type="line"/>
      <point x="294" y="0" type="line"/>
    </contour>
  </outline>
</glyph>
<glyph name="n" format="1">
  <advance width="1128"/>
  <unicode hex="006E"/>
  <outline>
    <contour>
      <point x="180" y="0" type="line"/>
      <point x="294" y="0" type="line"/>
      <point x="294" y="579" type="line" smooth="yes"/>
      <point x="294" y="607"/>
      <point x="297" y="634"/>
      <point x="298" y="668" type="curve"/>
      <point x="324" y="809"/>
      <point x="411" y="918"/>
      <point x="621" y="918" type="curve" smooth="yes"/>
      <point x="795" y="918"/>
      <point x="845" y="806"/>
      <point x="844" y="630" type="curve" smooth="yes"/>
      <point x="844" y="0" type="line"/>
      <point x="958" y="0" type="line"/>
      <point x="958" y="594" type="line" smooth="yes"/>
      <point x="958" y="873"/>
      <point x="858" y="1004"/>
      <point x="632" y="1004" type="curve" smooth="yes"/>
      <point x="487" y="1004"/>
      <point x="366" y="952"/>
      <point x="300" y="824" type="curve"/>
      <point x="285" y="986" type="line"/>
      <point x="180" y="986" type="line"/>
    </contour>
    <contour>
      <point x="545" y="986" type="move" name="top"/>
    </contour>
    <contour>
      <point x="545" y="0" type="move" name="bottom"/>
    </contour>
  </outline>
</glyph>
<glyph name="o" format="1">
  <advance width="1150"/>
  <unicode hex="006F"/>
  <outline>
    <contour>
      <point x="121" y="200"/>
      <point x="291" y="-18"/>
      <point x="576" y="-18" type="curve" smooth="yes"/>
      <point x="844" y="-18"/>
      <point x="1031" y="203"/>
      <point x="1031" y="490" type="curve" smooth="yes"/>
      <point x="1031" y="790"/>
      <point x="869" y="1004"/>
      <point x="576" y="1004" type="curve" smooth="yes"/>
      <point x="291" y="1004"/>
      <point x="121" y="785"/>
      <point x="121" y="490" type="curve" smooth="yes"/>
    </contour>
    <contour>
      <point x="919" y="259"/>
      <point x="826" y="68"/>
      <point x="576" y="68" type="curve" smooth="yes"/>
      <point x="335" y="68"/>
      <point x="233" y="259"/>
      <point x="233" y="488" type="curve" smooth="yes"/>
      <point x="233" y="726"/>
      <point x="335" y="918"/>
      <point x="576" y="918" type="curve" smooth="yes"/>
      <point x="823" y="918"/>
      <point x="919" y="725"/>
      <point x="919" y="487" type="curve" smooth="yes"/>
    </contour>
    <contour>
      <point x="575" y="986" type="move" name="top"/>
    </contour>
  </outline>
</glyph>
<glyph name="p" format="1">
  <advance width="1177"/>
  <unicode hex="0070"/>
  <outline>
    <contour>
      <point x="180" y="986" type="line"/>
      <point x="271" y="986" type="line"/>
      <point x="285" y="770" type="line"/>
      <point x="339" y="925"/>
      <point x="492" y="1004"/>
      <point x="629" y="1004" type="curve" smooth="yes"/>
      <point x="916" y="1004"/>
      <point x="1057" y="800"/>
      <point x="1057" y="486" type="curve" smooth="yes"/>
      <point x="1057" y="188"/>
      <point x="905" y="-18"/>
      <point x="637" y="-18" type="curve" smooth="yes"/>
      <point x="490" y="-18"/>
      <point x="339.294" y="69.2353"/>
      <point x="284" y="221" type="curve"/>
      <point x="289" y="141"/>
      <point x="294" y="3"/>
      <point x="294" y="-81" type="curve" smooth="yes"/>
      <point x="294" y="-441" type="line"/>
      <point x="180" y="-449" type="line"/>
    </contour>
    <contour>
      <point x="851" y="68"/>
      <point x="943" y="240"/>
      <point x="943" y="488" type="curve" smooth="yes"/>
      <point x="943" y="724"/>
      <point x="867" y="918"/>
      <point x="635" y="918" type="curve" smooth="yes"/>
      <point x="389" y="918"/>
      <point x="291" y="740"/>
      <point x="291" y="509" type="curve" smooth="yes"/>
      <point x="291" y="505" type="line" smooth="yes"/>
      <point x="291" y="242"/>
      <point x="415" y="68"/>
      <point x="623" y="68" type="curve" smooth="yes"/>
    </contour>
  </outline>
</glyph>
<glyph name="q" format="1">
  <advance width="1219"/>
  <unicode hex="0071"/>
  <outline>
    <contour>
      <point x="1039" y="986" type="line"/>
      <point x="933" y="986" type="line"/>
      <point x="916" y="788" type="line"/>
      <point x="857" y="940"/>
      <point x="699" y="1004"/>
      <point x="566" y="1004" type="curve" smooth="yes"/>
      <point x="282" y="1004"/>
      <point x="120" y="789"/>
      <point x="120" y="481" type="curve" smooth="yes"/>
      <point x="120" y="192"/>
      <point x="300" y="-18"/>
      <point x="561" y="-18" type="curve" smooth="yes"/>
      <point x="743" y="-18"/>
      <point x="878" y="71"/>
      <point x="932" y="205" type="curve"/>
      <point x="926" y="119"/>
      <point x="927" y="-19"/>
      <point x="927" y="-102" type="curve" smooth="yes"/>
      <point x="927" y="-449" type="line"/>
      <point x="1039" y="-443" type="line"/>
    </contour>
    <contour>
      <point x="922" y="253"/>
      <point x="848" y="68"/>
      <point x="576" y="68" type="curve" smooth="yes"/>
      <point x="341" y="68"/>
      <point x="232" y="247"/>
      <point x="232" y="493" type="curve" smooth="yes"/>
      <point x="232" y="727"/>
      <point x="333" y="918"/>
      <point x="578" y="918" type="curve" smooth="yes"/>
      <point x="830" y="918"/>
      <point x="919" y="746"/>
      <point x="919" y="530" type="curve" smooth="yes"/>
    </contour>
  </outline>
</glyph>
<glyph name="r" format="1">
  <advance width="756"/>
  <unicode hex="0072"/>
  <outline>
    <contour>
      <point x="180" y="986" type="line"/>
      <point x="266" y="986" type="line"/>
      <point x="280" y="760" type="line"/>
      <point x="352" y="919"/>
      <point x="469" y="998"/>
      <point x="598" y="998" type="curve" smooth="yes"/>
      <point x="628" y="998"/>
      <point x="656" y="996"/>
      <point x="676" y="993" type="curve"/>
      <point x="668" y="903" type="line"/>
      <point x="648" y="908"/>
      <point x="624" y="910"/>
      <point x="605" y="910" type="curve" smooth="yes"/>
      <point x="430" y="910"/>
      <point x="294" y="748"/>
      <point x="294" y="568" type="curve" smooth="yes"/>
      <point x="294" y="0" type="line"/>
      <point x="180" y="0" type="line"/>
    </contour>
    <contour>
      <point x="350" y="986" type="move" name="top"/>
    </contour>
    <contour>
      <point x="350" y="0" type="move" name="bottom"/>
    </contour>
  </outline>
</glyph>
<glyph name="s" format="1">
  <advance width="899"/>
  <unicode hex="0073"/>
  <outline>
    <contour>
      <point x="784" y="71"/>
      <point x="662" y="-18"/>
      <point x="453" y="-18" type="curve" smooth="yes"/>
      <point x="319" y="-18"/>
      <point x="196" y="17"/>
      <point x="157" y="36" type="curve"/>
      <point x="187" y="116" type="line"/>
      <point x="238" y="98"/>
      <point x="320" y="68"/>
      <point x="460" y="68" type="curve" smooth="yes"/>
      <point x="623" y="68"/>
      <point x="693" y="130"/>
      <point x="693" y="245" type="curve" smooth="yes"/>
      <point x="693" y="349"/>
      <point x="661" y="403"/>
      <point x="471" y="461" type="curve" smooth="yes"/>
      <point x="379" y="489" type="line" smooth="yes"/>
      <point x="191" y="546"/>
      <point x="137" y="643"/>
      <point x="136" y="743" type="curve"/>
      <point x="136" y="879"/>
      <point x="253" y="1004"/>
      <point x="471" y="1004" type="curve" smooth="yes"/>
      <point x="589" y="1004"/>
      <point x="657" y="990"/>
      <point x="738" y="955" type="curve"/>
      <point x="708" y="870" type="line"/>
      <point x="649" y="896"/>
      <point x="588" y="918"/>
      <point x="483" y="918" type="curve" smooth="yes"/>
      <point x="321" y="918"/>
      <point x="235" y="843"/>
      <point x="235" y="752" type="curve" smooth="yes"/>
      <point x="235" y="652"/>
      <point x="287" y="608"/>
      <point x="421" y="569" type="curve" smooth="yes"/>
      <point x="506" y="542" type="line" smooth="yes"/>
      <point x="740" y="470"/>
      <point x="789" y="389"/>
      <point x="789" y="244" type="curve" smooth="yes"/>
    </contour>
    <contour>
      <point x="458" y="984" type="move" name="top"/>
    </contour>
    <contour>
      <point x="458" y="0" type="move" name="bottom"/>
    </contour>
  </outline>
</glyph>
<glyph name="t" format="1">
  <advance width="744"/>
  <unicode hex="0074"/>
  <outline>
    <contour>
      <point x="654" y="8"/>
      <point x="583" y="-10"/>
      <point x="486" y="-10" type="curve" smooth="yes"/>
      <point x="336" y="-10"/>
      <point x="228" y="68"/>
      <point x="228" y="261" type="curve" smooth="yes"/>
      <point x="228" y="919" type="line"/>
      <point x="90" y="919" type="line"/>
      <point x="90" y="974" type="line"/>
      <point x="236" y="986" type="line"/>
      <point x="267" y="1235" type="line"/>
      <point x="342" y="1240" type="line"/>
      <point x="342" y="986" type="line"/>
      <point x="645" y="986" type="line"/>
      <point x="645" y="919" type="line"/>
      <point x="342" y="919" type="line"/>
      <point x="342" y="265" type="line" smooth="yes"/>
      <point x="342" y="106"/>
      <point x="407" y="68"/>
      <point x="505" y="68" type="curve" smooth="yes"/>
      <point x="571" y="68"/>
      <point x="632" y="88"/>
      <point x="632" y="88" type="curve"/>
      <point x="654" y="8" type="line"/>
    </contour>
    <contour>
      <point x="353" y="494" type="move" name="center"/>
    </contour>
    <contour>
      <point x="353" y="0" type="move" name="bottom"/>
    </contour>
  </outline>
</glyph>
<glyph name="v" format="1">
  <advance width="999"/>
  <unicode hex="0076"/>
  <outline>
    <contour>
      <point x="440" y="0" type="line"/>
      <point x="561" y="0" type="line"/>
      <point x="937" y="986" type="line"/>
      <point x="824" y="986" type="line" smooth="yes"/>
      <point x="824" y="986"/>
      <point x="707" y="664"/>
      <point x="613" y="409" type="curve" smooth="yes"/>
      <point x="572" y="295"/>
      <point x="500" y="106"/>
      <point x="500" y="106" type="curve" smooth="yes"/>
      <point x="500" y="106"/>
      <point x="439" y="271"/>
      <point x="388" y="406" type="curve" smooth="yes"/>
      <point x="175" y="986" type="line"/>
      <point x="62" y="986" type="line"/>
    </contour>
  </outline>
</glyph>
<glyph name="w" format="1">
  <advance width="1449"/>
  <unicode hex="0077"/>
  <outline>
    <contour>
      <point x="66" y="986" type="line"/>
      <point x="170" y="986" type="line"/>
      <point x="394" y="112" type="line"/>
      <point x="541" y="570"/>
      <point x="618" y="863"/>
      <point x="661" y="986" type="curve"/>
      <point x="791" y="986" type="line"/>
      <point x="824" y="893"/>
      <point x="966" y="474"/>
      <point x="1080" y="116" type="curve"/>
      <point x="1283" y="986" type="line"/>
      <point x="1383" y="986" type="line"/>
      <point x="1129" y="0" type="line"/>
      <point x="1036" y="0" type="line"/>
      <point x="1050" y="-49"/>
      <point x="846" y="544"/>
      <point x="728" y="911" type="curve"/>
      <point x="586" y="436"/>
      <point x="449" y="0"/>
      <point x="449" y="0" type="curve" smooth="yes"/>
      <point x="339" y="0" type="line"/>
    </contour>
    <contour>
      <point x="724" y="986" type="move" name="top"/>
    </contour>
  </outline>
</glyph>
<glyph name="x" format="1">
  <advance width="989"/>
  <unicode hex="0078"/>
  <outline>
    <contour>
      <point x="491" y="580" type="line"/>
      <point x="797" y="986" type="line"/>
      <point x="919" y="986" type="line"/>
      <point x="542" y="496" type="line"/>
      <point x="927" y="0" type="line"/>
      <point x="820" y="0" type="line"/>
      <point x="491" y="423" type="line"/>
      <point x="168" y="0" type="line"/>
      <point x="62" y="0" type="line"/>
      <point x="437" y="500" type="line"/>
      <point x="73" y="986" type="line"/>
      <point x="179" y="986" type="line"/>
    </contour>
  </outline>
</glyph>
<glyph name="y" format="1">
  <advance width="1005"/>
  <unicode hex="0079"/>
  <outline>
    <contour>
      <point x="425" y="-374" type="line"/>
      <point x="955" y="986" type="line"/>
      <point x="848" y="986" type="line"/>
      <point x="529" y="152" type="line"/>
      <point x="191" y="986" type="line"/>
      <point x="76" y="986" type="line"/>
      <point x="477" y="22" type="line"/>
      <point x="327" y="-374" type="line"/>
    </contour>
    <contour>
      <point x="488" y="986" type="move" name="top"/>
    </contour>
  </outline>
</glyph>
<glyph name="z" format="1">
  <advance width="858"/>
  <unicode hex="007A"/>
  <outline>
    <contour>
      <point x="134" y="986" type="line"/>
      <point x="747" y="986" type="line"/>
      <point x="747" y="908" type="line"/>
      <point x="221" y="78" type="line"/>
      <point x="752" y="78" type="line"/>
      <point x="752" y="0" type="line"/>
      <point x="114" y="0" type="line"/>
      <point x="114" y="77" type="line"/>
      <point x="640" y="908" type="line"/>
      <point x="134" y="908" type="line"/>
    </contour>
    <contour>
      <point x="444" y="986" type="move" name="top"/>
    </contour>
  </outline>
</glyph>
<glyph name="asciitilde" format="1">
  <advance width="1127"/>
  <unicode hex="007E"/>
  <outline>
    <contour>
      <point x="240" y="631"/>
      <point x="157" y="561"/>
      <point x="110" y="474" type="curve" smooth="yes"/>
      <point x="91" y="541" type="line"/>
      <point x="131" y="645"/>
      <point x="214" y="722"/>
      <point x="326" y="722" type="curve" smooth="yes"/>
      <point x="399" y="722"/>
      <point x="441" y="704"/>
      <point x="542" y="659" type="curve" smooth="yes"/>
      <point x="635" y="620"/>
      <point x="717" y="577"/>
      <point x="776" y="577" type="curve" smooth="yes"/>
      <point x="857" y="577"/>
      <point x="937" y="658"/>
      <point x="957" y="735" type="curve" smooth="yes"/>
      <point x="988" y="676" type="line"/>
      <point x="943" y="552"/>
      <point x="887" y="488"/>
      <point x="779" y="488" type="curve" smooth="yes"/>
      <point x="724" y="488"/>
      <point x="655" y="513"/>
      <point x="582" y="546" type="curve"/>
      <point x="470" y="595"/>
      <point x="391" y="631"/>
      <point x="325" y="631" type="curve" smooth="yes"/>
    </contour>
  </outline>
</glyph>
<glyph name="sterling" format="1">
  <advance width="1122"/>
  <unicode hex="00A3"/>
  <outline>
    <contour>
      <point x="136" y="-13" type="line"/>
      <point x="1001" y="-13" type="line"/>
      <point x="996" y="87" type="line"/>
      <point x="363" y="87" type="line" smooth="yes"/>
      <point x="315" y="87"/>
      <point x="299" y="83"/>
      <point x="264" y="80" type="curve"/>
      <point x="385" y="160"/>
      <point x="396" y="291"/>
      <point x="396" y="466" type="curve" smooth="yes"/>
      <point x="396" y="629" type="line"/>
      <point x="791" y="629" type="line"/>
      <point x="791" y="714" type="line"/>
      <point x="396" y="714" type="line"/>
      <point x="396" y="884" type="line" smooth="yes"/>
      <point x="396" y="1123"/>
      <point x="456" y="1288"/>
      <point x="672" y="1288" type="curve" smooth="yes"/>
      <point x="771" y="1288"/>
      <point x="857" y="1253"/>
      <point x="939" y="1187" type="curve"/>
      <point x="985" y="1259" type="line"/>
      <point x="910" y="1323"/>
      <point x="810" y="1373"/>
      <point x="677" y="1373" type="curve" smooth="yes"/>
      <point x="329" y="1373"/>
      <point x="302" y="1078"/>
      <point x="302" y="803" type="curve" smooth="yes"/>
      <point x="302" y="714" type="line"/>
      <point x="128" y="714" type="line"/>
      <point x="128" y="630" type="line"/>
      <point x="302" y="630" type="line"/>
      <point x="302" y="385" type="line" smooth="yes"/>
      <point x="302" y="233"/>
      <point x="256" y="117"/>
      <point x="125" y="72" type="curve"/>
    </contour>
  </outline>
</glyph>
<glyph name="currency" format="1">
  <advance width="1303"/>
  <unicode hex="00A4"/>
  <outline>
    <contour>
      <point x="1109" y="258" type="line"/>
      <point x="1069" y="212" type="line"/>
      <point x="897" y="374" type="line"/>
      <point x="828" y="315"/>
      <point x="742" y="284"/>
      <point x="645" y="284" type="curve" smooth="yes"/>
      <point x="548" y="284"/>
      <point x="461" y="315"/>
      <point x="392" y="375" type="curve"/>
      <point x="220" y="213" type="line"/>
      <point x="176" y="260" type="line"/>
      <point x="349" y="423" type="line"/>
      <point x="294" y="492"/>
      <point x="263" y="572"/>
      <point x="263" y="660" type="curve" smooth="yes"/>
      <point x="263" y="747"/>
      <point x="295" y="830"/>
      <point x="349" y="897" type="curve"/>
      <point x="175" y="1063" type="line"/>
      <point x="220" y="1107" type="line"/>
      <point x="391" y="946" type="line"/>
      <point x="461" y="1007"/>
      <point x="549" y="1037"/>
      <point x="645" y="1037" type="curve" smooth="yes"/>
      <point x="741" y="1037"/>
      <point x="829" y="1004"/>
      <point x="897" y="945" type="curve"/>
      <point x="1069" y="1107" type="line"/>
      <point x="1110" y="1060" type="line"/>
      <point x="940" y="897" type="line"/>
      <point x="995" y="824"/>
      <point x="1025" y="743"/>
      <point x="1025" y="660" type="curve" smooth="yes"/>
      <point x="1025" y="569"/>
      <point x="994" y="488"/>
      <point x="941" y="423" type="curve"/>
    </contour>
    <contour>
      <point x="329" y="490"/>
      <point x="470" y="353"/>
      <point x="645" y="353" type="curve" smooth="yes"/>
      <point x="821" y="353"/>
      <point x="960" y="491"/>
      <point x="960" y="660" type="curve" smooth="yes"/>
      <point x="960" y="829"/>
      <point x="820" y="968"/>
      <point x="645" y="968" type="curve" smooth="yes"/>
      <point x="470" y="968"/>
      <point x="329" y="830"/>
      <point x="329" y="660" type="curve" smooth="yes"/>
    </contour>
  </outline>
</glyph>
<glyph name="guillemotright" format="1">
  <advance width="911"/>
  <unicode hex="00BB"/>
  <outline>
    <contour>
      <point x="189" y="860" type="line"/>
      <point x="453" y="492" type="line"/>
      <point x="188" y="147" type="line"/>
      <point x="135" y="165" type="line"/>
      <point x="359" y="506" type="line"/>
      <point x="135" y="841" type="line"/>
    </contour>
    <contour>
      <point x="530" y="860" type="line"/>
      <point x="771" y="492" type="line"/>
      <point x="527" y="147" type="line"/>
      <point x="454" y="165" type="line"/>
      <point x="700" y="506" type="line"/>
      <point x="459" y="841" type="line"/>
    </contour>
  </outline>
</glyph>
<glyph name="Oslash" format="1">
  <advance width="1654"/>
  <unicode hex="00D8"/>
  <outline>
    <contour>
      <point x="553" y="-154" type="line"/>
      <point x="433" y="-119" type="line"/>
      <point x="494" y="44" type="line"/>
      <point x="257" y="163"/>
      <point x="153" y="422"/>
      <point x="153" y="728" type="curve" smooth="yes"/>
      <point x="153" y="1183"/>
      <point x="370" y="1486"/>
      <point x="817" y="1486" type="curve" smooth="yes"/>
      <point x="899" y="1486"/>
      <point x="978" y="1475"/>
      <point x="1045" y="1455" type="curve"/>
      <point x="1109" y="1626" type="line"/>
      <point x="1234" y="1586" type="line"/>
      <point x="1163" y="1405" type="line"/>
      <point x="1378" y="1286"/>
      <point x="1484" y="1047"/>
      <point x="1484" y="729" type="curve" smooth="yes"/>
      <point x="1484" y="307"/>
      <point x="1291" y="-26"/>
      <point x="820" y="-26" type="curve" smooth="yes"/>
      <point x="741" y="-26"/>
      <point x="672" y="-16"/>
      <point x="610" y="2" type="curve"/>
    </contour>
    <contour>
      <point x="257" y="484"/>
      <point x="349" y="264"/>
      <point x="538" y="160" type="curve"/>
      <point x="1003" y="1338" type="line"/>
      <point x="945" y="1356"/>
      <point x="886" y="1364"/>
      <point x="817" y="1364" type="curve" smooth="yes"/>
      <point x="442" y="1364"/>
      <point x="257" y="1078"/>
      <point x="257" y="735" type="curve" smooth="yes"/>
    </contour>
    <contour>
      <point x="706" y="106"/>
      <point x="756" y="101"/>
      <point x="817" y="101" type="curve" smooth="yes"/>
      <point x="1197" y="101"/>
      <point x="1375" y="393"/>
      <point x="1375" y="746" type="curve" smooth="yes"/>
      <point x="1375" y="978"/>
      <point x="1291" y="1184"/>
      <point x="1120" y="1294" type="curve"/>
      <point x="654" y="121" type="line"/>
    </contour>
    <contour>
      <point x="827" y="1349" type="move" name="top"/>
    </contour>
  </outline>
</glyph>
<glyph name="IJ" format="1">
  <advance width="1127"/>
  <unicode hex="0132"/>
  <outline>
    <contour>
      <point x="141" y="0" type="line"/>
      <point x="141" y="1349" type="line"/>
      <point x="230" y="1349" type="line"/>
      <point x="230" y="0" type="line"/>
    </contour>
    <contour>
      <point x="641" y="-130"/>
      <point x="609" y="-131"/>
      <point x="632" y="-136" type="curve"/>
      <point x="608" y="-25" type="line"/>
      <point x="579" y="-21"/>
      <point x="665" y="-19"/>
      <point x="648" y="-19" type="curve" smooth="yes"/>
      <point x="840" y="-19"/>
      <point x="835" y="98"/>
      <point x="835" y="226" type="curve" smooth="yes"/>
      <point x="835" y="1349" type="line"/>
      <point x="925" y="1349" type="line"/>
      <point x="925" y="268" type="line" smooth="yes"/>
      <point x="925" y="0"/>
      <point x="942" y="-130"/>
      <point x="619" y="-130" type="curve" smooth="yes"/>
    </contour>
  </outline>
</glyph>
<glyph name="uni01C4" format="1">
  <advance width="2598"/>
  <unicode hex="01C4"/>
  <outline>
    <contour>
      <point x="230" y="1265" type="line"/>
      <point x="230" y="82" type="line"/>
      <point x="505" y="82" type="line" smooth="yes"/>
      <point x="902" y="82"/>
      <point x="1123" y="276"/>
      <point x="1123" y="669" type="curve" smooth="yes"/>
      <point x="1123" y="1101"/>
      <point x="875" y="1265"/>
      <point x="479" y="1265" type="curve" smooth="yes"/>
    </contour>
    <contour>
      <point x="141" y="0" type="line"/>
      <point x="141" y="1349" type="line"/>
      <point x="496" y="1349" type="line" smooth="yes"/>
      <point x="931" y="1349"/>
      <point x="1214" y="1150"/>
      <point x="1214" y="673" type="curve" smooth="yes"/>
      <point x="1214" y="223"/>
      <point x="961" y="0"/>
      <point x="525" y="0" type="curve" smooth="yes"/>
    </contour>
    <contour>
      <point x="2272" y="1947" type="line"/>
      <point x="2161" y="1583" type="line"/>
      <point x="1964" y="1583" type="line"/>
      <point x="1853" y="1947" type="line"/>
      <point x="1910" y="1947" type="line"/>
      <point x="2070" y="1588" type="line"/>
      <point x="2213" y="1947" type="line"/>
    </contour>
    <contour>
      <point x="1536" y="1349" type="line"/>
      <point x="2401" y="1349" type="line"/>
      <point x="2401" y="1279" type="line"/>
      <point x="1607" y="87" type="line"/>
      <point x="2409" y="87" type="line"/>
      <point x="2400" y="0" type="line"/>
      <point x="1506" y="0" type="line"/>
      <point x="1506" y="92" type="line"/>
      <point x="2283" y="1261" type="line"/>
      <point x="1537" y="1261" type="line"/>
    </contour>
  </outline>
</glyph>
<glyph name="uni01CA" format="1">
  <advance width="2051"/>
  <unicode hex="01CA"/>
  <outline>
    <contour>
      <point x="263" y="725"/>
      <point x="286" y="739"/>
      <point x="738" y="110" type="curve"/>
      <point x="739" y="60"/>
      <point x="742" y="322"/>
      <point x="742" y="393" type="curve" smooth="yes"/>
      <point x="742" y="1349" type="line"/>
      <point x="795" y="1349" type="line"/>
      <point x="795" y="0" type="line"/>
      <point x="714" y="0" type="line"/>
      <point x="260" y="625"/>
      <point x="237" y="617"/>
      <point x="-212" y="1247" type="curve"/>
      <point x="-212" y="1247"/>
      <point x="-225" y="1200"/>
      <point x="-225" y="1034" type="curve" smooth="yes"/>
      <point x="-225" y="0" type="line"/>
      <point x="-278" y="0" type="line"/>
      <point x="-278" y="1349" type="line"/>
      <point x="-193" y="1349" type="line"/>
    </contour>
    <contour>
      <point x="2595" y="-130"/>
      <point x="2563" y="-131"/>
      <point x="2586" y="-136" type="curve"/>
      <point x="2562" y="-25" type="line"/>
      <point x="2532" y="-21"/>
      <point x="2619" y="-19"/>
      <point x="2602" y="-19" type="curve" smooth="yes"/>
      <point x="2793" y="-19"/>
      <point x="2789" y="98"/>
      <point x="2789" y="226" type="curve" smooth="yes"/>
      <point x="2789" y="1349" type="line"/>
      <point x="2879" y="1349" type="line"/>
      <point x="2879" y="268" type="line" smooth="yes"/>
      <point x="2879" y="0"/>
      <point x="2895" y="-130"/>
      <point x="2572" y="-130" type="curve" smooth="yes"/>
    </contour>
  </outline>
</glyph>
<glyph name="dotaccent" format="1">
  <advance width="299"/>
  <unicode hex="02D9"/>
  <outline>
    <contour>
      <point x="93" y="1215" type="line"/>
      <point x="93" y="1374" type="line"/>
      <point x="212" y="1374" type="line"/>
      <point x="212" y="1215" type="line"/>
    </contour>
    <contour>
      <point x="152" y="986" type="move" name="_top"/>
    </contour>
  </outline>
</glyph>
<glyph name="ogonek" format="1">
  <advance width="560"/>
  <unicode hex="02DB"/>
  <outline>
    <contour>
      <point x="377" y="-395"/>
      <point x="319" y="-408"/>
      <point x="278" y="-408" type="curve" smooth="yes"/>
      <point x="184" y="-408"/>
      <point x="116" y="-351"/>
      <point x="116" y="-253" type="curve" smooth="yes"/>
      <point x="116" y="-170"/>
      <point x="191" y="-93"/>
      <point x="290" y="-36" type="curve"/>
      <point x="392" y="-25" type="line"/>
      <point x="281" y="-104"/>
      <point x="184" y="-174"/>
      <point x="184" y="-241" type="curve" smooth="yes"/>
      <point x="184" y="-298"/>
      <point x="240" y="-330"/>
      <point x="276" y="-330" type="curve" smooth="yes"/>
      <point x="323" y="-330"/>
      <point x="331" y="-329"/>
      <point x="403" y="-301" type="curve" smooth="yes"/>
      <point x="402" y="-301"/>
      <point x="397" y="-384"/>
      <point x="397" y="-384" type="curve" smooth="yes"/>
    </contour>
    <contour>
      <point x="393" y="10" type="move" name="_ogonek"/>
    </contour>
  </outline>
</glyph>
<glyph name="tilde" format="1">
  <advance width="892"/>
  <unicode hex="02DC"/>
  <outline>
    <contour>
      <point x="251" y="1393"/>
      <point x="158" y="1379"/>
      <point x="158" y="1216" type="curve" smooth="yes"/>
      <point x="217" y="1222" type="line"/>
      <point x="222" y="1305"/>
      <point x="242" y="1307"/>
      <point x="278" y="1309" type="curve" smooth="yes"/>
      <point x="235" y="1309"/>
      <point x="489" y="1222"/>
      <point x="557" y="1222" type="curve" smooth="yes"/>
      <point x="614" y="1222"/>
      <point x="677" y="1186"/>
      <point x="677" y="1393" type="curve"/>
      <point x="614" y="1393" type="line"/>
      <point x="609" y="1330"/>
      <point x="613" y="1312"/>
      <point x="565" y="1308" type="curve"/>
      <point x="588" y="1308"/>
      <point x="416" y="1393"/>
      <point x="309" y="1393" type="curve" smooth="yes"/>
    </contour>
    <contour>
      <point x="417" y="986" type="move" name="_top"/>
    </contour>
  </outline>
</glyph>
<glyph name="dblgravecmb" format="1">
  <advance width="642"/>
  <unicode hex="030F"/>
  <outline>
    <contour>
      <point x="319" y="1187" type="line"/>
      <point x="143" y="1481" type="line"/>
      <point x="177" y="1481" type="line"/>
      <point x="352" y="1187" type="line"/>
    </contour>
    <contour>
      <point x="500" y="1187" type="line"/>
      <point x="321" y="1481" type="line"/>
      <point x="366" y="1481" type="line"/>
      <point x="519" y="1187" type="line"/>
    </contour>
    <contour>
      <point x="331" y="986" type="move" name="_top"/>
    </contour>
  </outline>
</glyph>
<glyph name="uni0311" format="1">
  <advance width="665"/>
  <unicode hex="0311"/>
  <outline>
    <contour>
      <point x="247" y="1378"/>
      <point x="187" y="1328"/>
      <point x="187" y="1222" type="curve" smooth="yes"/>
      <point x="130" y="1222" type="line" smooth="yes"/>
      <point x="130" y="1383"/>
      <point x="226" y="1465"/>
      <point x="322" y="1465" type="curve" smooth="yes"/>
      <point x="420" y="1465"/>
      <point x="524" y="1382"/>
      <point x="524" y="1222" type="curve" smooth="yes"/>
      <point x="465" y="1222" type="line" smooth="yes"/>
      <point x="465" y="1327"/>
      <point x="401" y="1378"/>
      <point x="325" y="1378" type="curve" smooth="yes"/>
    </contour>
  </outline>
</glyph>
<glyph name="Omicron" format="1">
  <advance width="1571"/>
  <unicode hex="039F"/>
  <outline>
    <contour>
      <point x="1400" y="268"/>
      <point x="1190" y="-23"/>
      <point x="767" y="-23" type="curve" smooth="yes"/>
      <point x="335" y="-23"/>
      <point x="132" y="259"/>
      <point x="132" y="666" type="curve" smooth="yes"/>
      <point x="132" y="1087"/>
      <point x="347" y="1371"/>
      <point x="768" y="1371" type="curve" smooth="yes"/>
      <point x="1176" y="1371"/>
      <point x="1400" y="1083"/>
      <point x="1400" y="664" type="curve" smooth="yes"/>
    </contour>
    <contour>
      <point x="220" y="319"/>
      <point x="395" y="56"/>
      <point x="766" y="56" type="curve" smooth="yes"/>
      <point x="1137" y="56"/>
      <point x="1310" y="319"/>
      <point x="1310" y="666" type="curve" smooth="yes"/>
      <point x="1310" y="1029"/>
      <point x="1127" y="1293"/>
      <point x="767" y="1293" type="curve" smooth="yes"/>
      <point x="408" y="1293"/>
      <point x="220" y="1031"/>
      <point x="220" y="666" type="curve" smooth="yes"/>
    </contour>
  </outline>
</glyph>
<glyph name="Rho" format="1">
  <advance width="1154"/>
  <unicode hex="03A1"/>
  <outline>
    <contour>
      <point x="142" y="0" type="line"/>
      <point x="142" y="1349" type="line"/>
      <point x="506" y="1349" type="line" smooth="yes"/>
      <point x="733" y="1349"/>
      <point x="927" y="1237"/>
      <point x="927" y="1019" type="curve" smooth="yes"/>
      <point x="927" y="758"/>
      <point x="767" y="626"/>
      <point x="469" y="626" type="curve" smooth="yes"/>
      <point x="410" y="626"/>
      <point x="302" y="636"/>
      <point x="232" y="642" type="curve"/>
      <point x="232" y="0" type="line"/>
    </contour>
    <contour>
      <point x="211" y="732"/>
      <point x="429" y="715"/>
      <point x="503" y="715" type="curve" smooth="yes"/>
      <point x="704" y="715"/>
      <point x="837" y="795"/>
      <point x="837" y="1019" type="curve" smooth="yes"/>
      <point x="837" y="1194"/>
      <point x="672" y="1253"/>
      <point x="498" y="1253" type="curve" smooth="yes"/>
      <point x="232" y="1253" type="line"/>
      <point x="232" y="731" type="line"/>
    </contour>
  </outline>
</glyph>
<glyph name="uni0408" format="1">
  <advance width="689"/>
  <unicode hex="0408"/>
  <outline>
    <contour>
      <point x="204" y="-130"/>
      <point x="172" y="-131"/>
      <point x="195" y="-136" type="curve"/>
      <point x="171" y="-25" type="line"/>
      <point x="141" y="-21"/>
      <point x="228" y="-19"/>
      <point x="211" y="-19" type="curve" smooth="yes"/>
      <point x="402" y="-19"/>
      <point x="398" y="98"/>
      <point x="398" y="226" type="curve" smooth="yes"/>
      <point x="398" y="1349" type="line"/>
      <point x="487" y="1349" type="line"/>
      <point x="487" y="268" type="line" smooth="yes"/>
      <point x="487" y="0"/>
      <point x="504" y="-130"/>
      <point x="181" y="-130" type="curve" smooth="yes"/>
    </contour>
  </outline>
</glyph>
<glyph name="uni0409" format="1">
  <advance width="1831"/>
  <unicode hex="0409"/>
  <outline>
    <contour>
      <point x="101" y="-29" type="line"/>
      <point x="101" y="83" type="line"/>
      <point x="116" y="81" type="line" smooth="yes"/>
      <point x="301" y="79"/>
      <point x="303" y="205"/>
      <point x="303" y="339" type="curve" smooth="yes"/>
      <point x="305" y="1359" type="line"/>
      <point x="981" y="1359" type="line"/>
      <point x="981" y="781" type="line"/>
      <point x="1283" y="781" type="line" smooth="yes"/>
      <point x="1506" y="781"/>
      <point x="1627" y="662"/>
      <point x="1627" y="378" type="curve" smooth="yes"/>
      <point x="1627" y="130"/>
      <point x="1506" y="-3"/>
      <point x="1279" y="-3" type="curve" smooth="yes"/>
      <point x="832" y="-3" type="line"/>
      <point x="853" y="1263" type="line"/>
      <point x="431" y="1263" type="line"/>
      <point x="423" y="389" type="line"/>
      <point x="423" y="115"/>
      <point x="410" y="-29"/>
      <point x="102" y="-29" type="curve" smooth="yes"/>
    </contour>
    <contour>
      <point x="968" y="679" type="line"/>
      <point x="968" y="92" type="line"/>
      <point x="1268" y="92" type="line" smooth="yes"/>
      <point x="1395" y="92"/>
      <point x="1489" y="200"/>
      <point x="1489" y="377" type="curve" smooth="yes"/>
      <point x="1489" y="555"/>
      <point x="1403" y="679"/>
      <point x="1268" y="679" type="curve" smooth="yes"/>
    </contour>
  </outline>
</glyph>
<glyph name="uni0427" format="1">
  <advance width="793"/>
  <unicode hex="0427"/>
  <outline>
    <contour>
      <point x="896" y="-11" type="line"/>
      <point x="768" y="-11" type="line"/>
      <point x="768" y="411" type="line"/>
      <point x="807" y="424"/>
      <point x="328" y="431"/>
      <point x="349" y="431" type="curve" smooth="yes"/>
      <point x="141" y="431"/>
      <point x="77" y="613"/>
      <point x="77" y="791" type="curve" smooth="yes"/>
      <point x="77" y="1359" type="line"/>
      <point x="216" y="1359" type="line"/>
      <point x="216" y="831" type="line" smooth="yes"/>
      <point x="216" y="586"/>
      <point x="290" y="547"/>
      <point x="427" y="547" type="curve" smooth="yes"/>
      <point x="407" y="547"/>
      <point x="794" y="532"/>
      <point x="768" y="523" type="curve"/>
      <point x="768" y="1359" type="line"/>
      <point x="896" y="1359" type="line"/>
    </contour>
  </outline>
</glyph>
<glyph name="uni042E" format="1">
  <advance width="2196"/>
  <unicode hex="042E"/>
  <outline>
    <contour>
      <point x="1773" y="295"/>
      <point x="1555" y="-24"/>
      <point x="1177" y="-24" type="curve" smooth="yes"/>
      <point x="819" y="-24"/>
      <point x="605" y="278"/>
      <point x="584" y="648" type="curve"/>
      <point x="237" y="648" type="line"/>
      <point x="237" y="-7" type="line"/>
      <point x="123" y="-7" type="line"/>
      <point x="123" y="1379" type="line"/>
      <point x="237" y="1379" type="line"/>
      <point x="237" y="743" type="line"/>
      <point x="587" y="743" type="line"/>
      <point x="607" y="1140"/>
      <point x="811" y="1404"/>
      <point x="1164" y="1404" type="curve" smooth="yes"/>
      <point x="1540" y="1404"/>
      <point x="1773" y="1099"/>
      <point x="1773" y="678" type="curve" smooth="yes"/>
    </contour>
    <contour>
      <point x="700" y="235"/>
      <point x="867" y="71"/>
      <point x="1181" y="71" type="curve" smooth="yes"/>
      <point x="1489" y="71"/>
      <point x="1652" y="360"/>
      <point x="1652" y="684" type="curve" smooth="yes"/>
      <point x="1652" y="987"/>
      <point x="1489" y="1308"/>
      <point x="1167" y="1308" type="curve" smooth="yes"/>
      <point x="858" y="1308"/>
      <point x="700" y="1000"/>
      <point x="700" y="681" type="curve" smooth="yes"/>
    </contour>
  </outline>
</glyph>
<glyph name="uni0432" format="1">
  <advance width="1090"/>
  <unicode hex="0432"/>
  <outline>
    <contour>
      <point x="194" y="0" type="line"/>
      <point x="194" y="988" type="line"/>
      <point x="622" y="988" type="line" smooth="yes"/>
      <point x="878" y="988"/>
      <point x="938" y="857"/>
      <point x="938" y="757" type="curve" smooth="yes"/>
      <point x="938" y="642"/>
      <point x="890" y="575"/>
      <point x="731" y="534" type="curve"/>
      <point x="925" y="498"/>
      <point x="974" y="364"/>
      <point x="974" y="281" type="curve"/>
      <point x="974" y="163"/>
      <point x="914" y="0"/>
      <point x="609" y="0" type="curve" smooth="yes"/>
    </contour>
    <contour>
      <point x="315" y="469" type="line"/>
      <point x="315" y="79" type="line"/>
      <point x="594" y="79" type="line" smooth="yes"/>
      <point x="801" y="79"/>
      <point x="832" y="151"/>
      <point x="832" y="281" type="curve"/>
      <point x="833" y="367"/>
      <point x="823" y="469"/>
      <point x="620" y="469" type="curve" smooth="yes"/>
    </contour>
    <contour>
      <point x="315" y="907" type="line"/>
      <point x="315" y="564" type="line"/>
      <point x="616" y="564" type="line" smooth="yes"/>
      <point x="768" y="564"/>
      <point x="797" y="651"/>
      <point x="797" y="733" type="curve" smooth="yes"/>
      <point x="797" y="834"/>
      <point x="746" y="907"/>
      <point x="595" y="907" type="curve" smooth="yes"/>
    </contour>
  </outline>
</glyph>
<glyph name="uni0433" format="1">
  <advance width="994"/>
  <unicode hex="0433"/>
  <outline>
    <contour>
      <point x="895" y="917" type="line"/>
      <point x="914" y="988" type="line"/>
      <point x="194" y="988" type="line"/>
      <point x="194" y="0" type="line"/>
      <point x="315" y="0" type="line"/>
      <point x="315" y="917" type="line"/>
    </contour>
    <contour>
      <point x="497" y="986" type="move" name="top"/>
    </contour>
  </outline>
</glyph>
<glyph name="uni0438" format="1">
  <advance width="1088"/>
  <unicode hex="0438"/>
  <outline>
    <contour>
      <point x="254" y="147" type="line"/>
      <point x="254" y="988" type="line"/>
      <point x="161" y="988" type="line"/>
      <point x="161" y="0" type="line"/>
      <point x="253" y="0" type="line"/>
      <point x="818" y="759" type="line"/>
      <point x="818" y="0" type="line"/>
      <point x="913" y="0" type="line"/>
      <point x="913" y="988" type="line"/>
      <point x="818" y="988" type="line"/>
      <point x="818" y="904" type="line"/>
    </contour>
    <contour>
      <point x="544" y="986" type="move" name="top"/>
    </contour>
  </outline>
</glyph>
<glyph name="uni043C" format="1">
  <advance width="1195"/>
  <unicode hex="043C"/>
  <outline>
    <contour>
      <point x="885" y="988" type="line"/>
      <point x="985" y="988" type="line"/>
      <point x="985" y="0" type="line"/>
      <point x="890" y="0" type="line"/>
      <point x="890" y="766" type="line"/>
      <point x="645" y="137" type="line"/>
      <point x="555" y="137" type="line"/>
      <point x="287" y="766" type="line"/>
      <point x="287" y="0" type="line"/>
      <point x="194" y="0" type="line"/>
      <point x="194" y="988" type="line"/>
      <point x="295" y="988" type="line"/>
      <point x="589" y="243" type="line"/>
    </contour>
  </outline>
</glyph>
<glyph name="uni043F" format="1">
  <advance width="1074"/>
  <unicode hex="043F"/>
  <outline>
    <contour>
      <point x="823" y="0" type="line"/>
      <point x="823" y="902" type="line"/>
      <point x="238" y="902" type="line"/>
      <point x="238" y="0" type="line"/>
      <point x="155" y="0" type="line"/>
      <point x="155" y="988" type="line"/>
      <point x="905" y="988" type="line"/>
      <point x="905" y="0" type="line"/>
    </contour>
  </outline>
</glyph>
<glyph name="uni0447" format="1">
  <advance width="1002"/>
  <unicode hex="0447"/>
  <outline>
    <contour>
      <point x="792" y="0" type="line"/>
      <point x="672" y="0" type="line"/>
      <point x="672" y="328" type="line"/>
      <point x="711" y="361"/>
      <point x="594" y="370"/>
      <point x="484" y="370" type="curve"/>
      <point x="287" y="368"/>
      <point x="159" y="493"/>
      <point x="159" y="745" type="curve" smooth="yes"/>
      <point x="159" y="988" type="line"/>
      <point x="280" y="988" type="line"/>
      <point x="280" y="742" type="line" smooth="yes"/>
      <point x="280" y="470"/>
      <point x="368" y="456"/>
      <point x="502" y="456" type="curve" smooth="yes"/>
      <point x="572" y="456"/>
      <point x="676" y="414"/>
      <point x="672" y="379" type="curve"/>
      <point x="672" y="988" type="line"/>
      <point x="792" y="988" type="line"/>
    </contour>
  </outline>
</glyph>
<glyph name="uni0448" format="1">
  <advance width="1394"/>
  <unicode hex="0448"/>
  <outline>
    <contour>
      <point x="677" y="71" type="line"/>
      <point x="677" y="988" type="line"/>
      <point x="795" y="988" type="line"/>
      <point x="795" y="71" type="line"/>
      <point x="1086" y="71" type="line"/>
      <point x="1086" y="988" type="line"/>
      <point x="1203" y="988" type="line"/>
      <point x="1203" y="0" type="line"/>
      <point x="270" y="0" type="line"/>
      <point x="270" y="988" type="line"/>
      <point x="385" y="988" type="line"/>
      <point x="385" y="71" type="line"/>
    </contour>
  </outline>
</glyph>
<glyph name="uni044C" format="1">
  <advance width="953"/>
  <unicode hex="044C"/>
  <outline>
    <contour>
      <point x="314" y="987" type="line"/>
      <point x="314" y="624" type="line"/>
      <point x="512" y="624" type="line" smooth="yes"/>
      <point x="795" y="624"/>
      <point x="848" y="455"/>
      <point x="848" y="322" type="curve" smooth="yes"/>
      <point x="848" y="179"/>
      <point x="785" y="0"/>
      <point x="514" y="0" type="curve" smooth="yes"/>
      <point x="194" y="0" type="line"/>
      <point x="194" y="987" type="line"/>
    </contour>
    <contour>
      <point x="313" y="538" type="line"/>
      <point x="313" y="79" type="line"/>
      <point x="527" y="79" type="line" smooth="yes"/>
      <point x="673" y="79"/>
      <point x="713" y="225"/>
      <point x="713" y="324" type="curve" smooth="yes"/>
      <point x="713" y="428"/>
      <point x="661" y="538"/>
      <point x="520" y="538" type="curve" smooth="yes"/>
    </contour>
  </outline>
</glyph>
<glyph name="uni045A" format="1">
  <advance width="1537"/>
  <unicode hex="045A"/>
  <outline>
    <contour>
      <point x="742" y="562" type="line"/>
      <point x="742" y="988" type="line"/>
      <point x="826" y="988" type="line"/>
      <point x="826" y="630" type="line"/>
      <point x="1027" y="630" type="line" smooth="yes"/>
      <point x="1299" y="630"/>
      <point x="1371" y="454"/>
      <point x="1371" y="325" type="curve" smooth="yes"/>
      <point x="1371" y="178"/>
      <point x="1311" y="0"/>
      <point x="1038" y="0" type="curve" smooth="yes"/>
      <point x="742" y="0" type="line"/>
      <point x="742" y="493" type="line"/>
      <point x="243" y="493" type="line"/>
      <point x="243" y="0" type="line"/>
      <point x="161" y="0" type="line"/>
      <point x="161" y="988" type="line"/>
      <point x="243" y="988" type="line"/>
      <point x="243" y="562" type="line"/>
    </contour>
    <contour>
      <point x="826" y="543" type="line"/>
      <point x="826" y="73" type="line"/>
      <point x="1084" y="73" type="line" smooth="yes"/>
      <point x="1223" y="73"/>
      <point x="1271" y="228"/>
      <point x="1271" y="326" type="curve" smooth="yes"/>
      <point x="1271" y="428"/>
      <point x="1214" y="543"/>
      <point x="1074" y="543" type="curve" smooth="yes"/>
    </contour>
  </outline>
</glyph>
<glyph name="uni045F" format="1">
  <advance width="1031"/>
  <unicode hex="045F"/>
  <outline>
    <contour>
      <point x="243" y="988" type="line"/>
      <point x="243" y="72" type="line"/>
      <point x="778" y="72" type="line"/>
      <point x="778" y="988" type="line"/>
      <point x="861" y="988" type="line"/>
      <point x="861" y="0" type="line"/>
      <point x="575" y="0" type="line"/>
      <point x="574" y="-219" type="line"/>
      <point x="512" y="-219" type="line"/>
      <point x="511" y="0" type="line"/>
      <point x="161" y="0" type="line"/>
      <point x="161" y="988" type="line"/>
    </contour>
  </outline>
</glyph>
<glyph name="quoteright" format="1">
  <advance width="457"/>
  <unicode hex="2019"/>
  <outline>
    <contour>
      <point x="153" y="1058" type="line"/>
      <point x="227" y="1468" type="line"/>
      <point x="315" y="1468" type="line"/>
      <point x="212" y="1058" type="line"/>
    </contour>
  </outline>
</glyph>
<glyph name="dagger" format="1">
  <advance width="874"/>
  <unicode hex="2020"/>
  <outline>
    <contour>
      <point x="393" y="1042" type="line"/>
      <point x="393" y="1461" type="line"/>
      <point x="456" y="1461" type="line"/>
      <point x="456" y="1042" type="line"/>
      <point x="722" y="1042" type="line"/>
      <point x="722" y="1006" type="line"/>
      <point x="462" y="1006" type="line"/>
      <point x="462" y="115" type="line"/>
      <point x="393" y="115" type="line"/>
      <point x="393" y="1006" type="line"/>
      <point x="128" y="1006" type="line"/>
      <point x="128" y="1042" type="line"/>
    </contour>
  </outline>
</glyph>
<glyph name="bullet" format="1">
  <advance width="669"/>
  <unicode hex="2022"/>
  <outline>
    <contour>
      <point x="553" y="555"/>
      <point x="440" y="414"/>
      <point x="322" y="414" type="curve" smooth="yes"/>
      <point x="197" y="414"/>
      <point x="95" y="555"/>
      <point x="95" y="710" type="curve" smooth="yes"/>
      <point x="95" y="869"/>
      <point x="211" y="1013"/>
      <point x="325" y="1013" type="curve" smooth="yes"/>
      <point x="445" y="1013"/>
      <point x="553" y="870"/>
      <point x="553" y="714" type="curve" smooth="yes"/>
    </contour>
  </outline>
</glyph>
<glyph name="integral" format="1">
  <advance width="672"/>
  <unicode hex="222B"/>
  <outline>
    <contour>
      <point x="384" y="-234"/>
      <point x="329" y="-390"/>
      <point x="148" y="-390" type="curve" smooth="yes"/>
      <point x="102" y="-390"/>
      <point x="75" y="-383"/>
      <point x="38" y="-372" type="curve"/>
      <point x="37" y="-246" type="line"/>
      <point x="58" y="-256"/>
      <point x="90" y="-258"/>
      <point x="122" y="-258" type="curve" smooth="yes"/>
      <point x="231" y="-258"/>
      <point x="253" y="-184"/>
      <point x="253" y="-46" type="curve" smooth="yes"/>
      <point x="253" y="1229" type="line" smooth="yes"/>
      <point x="253" y="1440"/>
      <point x="311" y="1598"/>
      <point x="492" y="1598" type="curve" smooth="yes"/>
      <point x="538" y="1598"/>
      <point x="565" y="1588"/>
      <point x="602" y="1577" type="curve"/>
      <point x="603" y="1451" type="line"/>
      <point x="582" y="1461"/>
      <point x="548" y="1465"/>
      <point x="516" y="1465" type="curve" smooth="yes"/>
      <point x="407" y="1465"/>
      <point x="384" y="1393"/>
      <point x="384" y="1255" type="curve" smooth="yes"/>
      <point x="384" y="-23" type="line" smooth="yes"/>
    </contour>
  </outline>
</glyph>
<glyph name="uni0435.copy_1" format="1">
  <advance width="1074"/>
  <outline>
    <component base="e"/>
    <contour>
      <point x="510" y="999" type="move" name="top"/>
    </contour>
  </outline>
</glyph>
